<?xml version="1.0" encoding="UTF-8"?><!DOCTYPE svg PUBLIC "-//W3C//DTD SVG 1.1//EN" "http://www.w3.org/Graphics/SVG/1.1/DTD/svg11.dtd"><svg xmlns="http://www.w3.org/2000/svg" xmlns:xlink="http://www.w3.org/1999/xlink"><symbol id="htmlacademy-logo"><path d="M13.6 0h-.1L0 1.4v24.7l13.5 8 13.4-8V1.4L13.6 0ZM25 12.1 13.5 5.3v-.1h-.1l-.1-.1v.1L1.9 12.1v-9l11.5-1.2L25 3.1v9ZM13.4 6.8l11.5 6.7-4.5 2.6-7.1-4.2v1.4l5.9 3.5-.9.5-5-3v1.4l3.8 2.3-.8.5-3-1.8v1.4l1.9 1.1-1.8 1.1L2 13.6l11.4-6.8ZM1.9 15.1l11.4 6.8v1l-7.9-4.7v1.4l8 4.8v1.1l-8-4.7v1.4l8 4.8 8.1-4.9v-5.2l3.4-2v10l-11.5 6.9L1.9 25v-9.9Z"/></symbol><symbol id="htmlacademy" viewBox="0 0 60 60"><path d="M30.2 5H30L10.3 7.1v36.2L30 55l19.7-11.7V7.1L30.2 5zm17 36.8L30 52 12.8 41.8V27l17.1 10.2V39l-11.7-7v1.8L30 40.9v1.9l-11.8-7v1.8l11.8 7 11.9-7.1v-7.6l5.3-3.2v15.1zm-.1-17-4.7 2.8-2.2 1.3-10.3-6.1v1.8l8.8 5.3h-.1l-.2.1-1.3.7-7.3-4.3v1.8l5.8 3.4-1.4.9-4.3-2.6v1.8l2.9 1.7-2.9 1.7-17-10.1 17-10.2 17.2 10zm.1-1.8L29.9 12.8 12.8 23V9.4L30 7.6l17.2 1.8V23z"/></symbol><symbol id="icon-telegram"><path d="m21.4 1.6-3.1 15c-.3 1-.9 1.3-1.8.8l-4.8-3.6-2.3 2.3c-.3.2-.5.4-1 .4l.3-4.9 9-8c.4-.4-.1-.6-.6-.3l-11 7-4.8-1.5c-1-.3-1-1 .2-1.5L20 0c.9-.3 1.6.2 1.3 1.5Z"/></symbol><symbol id="icon-vk"><path fill-rule="evenodd" clip-rule="evenodd" d="M23.4 1c.2-.6 0-1-.7-1H20c-.6 0-1 .3-1.1.7 0 0-1.3 3.2-3.2 5.3-.7.6-1 .8-1.3.8-.1 0-.4-.2-.4-.7V.9c0-.6-.2-.9-.7-.9H9.2c-.5 0-.7.3-.7.6 0 .6 1 .8 1 2.5V7c0 .8-.1 1-.5 1-.9 0-3-3.2-4.3-6.9-.3-.7-.5-1-1.2-1H1C.1 0 0 .3 0 .7c0 .7.9 4.1 4.1 8.6 2.2 3 5.3 4.7 8 4.7 1.7 0 2-.4 2-1v-2.3c0-.8 0-.9.6-.9.4 0 1 .2 2.6 1.7 1.8 1.7 2.1 2.5 3.1 2.5H23c.8 0 1.2-.4 1-1.1-.3-.7-1.1-1.8-2.3-3L20 8c-.4-.5-.3-.7 0-1.1 0 0 3.2-4.4 3.5-6Z"/></symbol><symbol id="icon-youtube"><path d="M17.2 0H2.8A2.9 2.9 0 0 0 0 2.8v8.3C0 12.7 1.3 14 2.8 14h14.4c1.6 0 2.8-1.3 2.8-2.8V2.8C20 1.3 18.8 0 17.2 0ZM7 10.4V3.6L14 7l-7 3.4Z"/></symbol><symbol id="like-icon"><path d="m12.964 3.78-.628 3.045-.627 2.625h9.096v2.205L17.773 18.9h-9.41V8.4l4.6-4.62ZM2.09 10.5v8.4-8.4ZM13.8 0 6.9 6.93c-.418.315-.627.84-.627 1.47v10.5c0 1.155.94 2.1 2.09 2.1h9.41c.836 0 1.568-.525 1.881-1.26l3.137-7.455c.104-.21.104-.525.104-.735v-2.1H23c0-1.155-.94-2.1-2.09-2.1h-6.587l1.045-4.83v-.315c0-.42-.209-.84-.418-1.155L13.8 0ZM4.182 8.4H0V21h4.182V8.4Z"/></symbol><symbol id="main-logo"><path d="M185 0H0l79.8 90.1c7 7.9 18.5 7.9 25.5 0L185 0Z" fill="#81B3D3"/><path d="M42.8.7 92 58.8l48.9-57.7-98-.4Z" fill="#23A9E1"/><path d="m121 17.2-15.1.1c6-6.8 8.6-6.1 15 0Zm-40.9 5.4h26.5c-2-1.2-6.7-7-9.2-4.9-.2.2-7.5-8.8-12.2-4.5-4.2 3.8-6-.5-10.8 2.5-5.3 3.6 3.1 5.7 5.7 6.9Z" fill="#fff"/><path d="M92.3 0H41.8v22.4L92 83.6l.3-.4 50.3-60.1V0H92.3ZM54.4 1.8H60v17.1l-5.5-6.5V1.8Zm-.8 9.7-5-5.8v-4h5v9.8ZM72.8 9 67 1.8h5.7v7Zm-6.6 3.7L60.7 1.8h5.5v10.8Zm-5.6-9.2L66 14c-2.7 2.1-4.6 4-5.4 5V3.3ZM67 3l5.6 6.9a41.8 41.8 0 0 0-5.6 3.6V3Zm6.6-.2L78.3 7a53 53 0 0 0-4.7 2.3V2.7ZM79 6.6l-5.3-4.8h6v4.6c-.4 0-.5 0-.7.2Zm19-4.8h5l-5 2.4V1.8Zm-5.8 0h4.4l-4.4 2v-2Zm-.9 2-4.2-2h4.2v2Zm-5.4.5-5.1-2.5h5v2.5Zm-5.6-2L85 4.7 80.4 6V2.4Zm6.3 0L90.1 4c-1.2 0-2.3.2-3.4.4v-2Zm10.4.2v1.9L93.7 4 97 2.5Zm6.4-.1V6c-1.5-.5-3-1-4.8-1.4l4.8-2.3Zm.7-.6h5.8l-5.3 4.8-.5-.2V1.8Zm13.5 0h5.5l-5.5 10.8V1.8Zm-6.6 0h5.7l-5.7 7v-7Zm-.8.9v6.5a53 53 0 0 0-4.7-2.3l4.7-4.2Zm6.6.2v10.4l-2.3-1.6-3.4-2 5.7-6.8Zm6.3.5v15.1c-1-1-2.8-2.7-5.4-4.6l5.4-10.5Zm.8 16V1.7h5.5V13l-5.5 6.2c.1.1 0 .1 0 0Zm6.3-17.6h5v4.7l-5 5.7V1.8ZM48 1.8v2.9l-2.5-3H48Zm12.7 18.1v.1s3.6-3.9 9.2-7.6A40.4 40.4 0 0 1 92 5c8.8 0 17 4.2 22.1 7.6 5.6 3.7 9.2 7.5 9.3 7.6l-3.8 4.5c-6.9.9-11.8 6-18.5 5-3.3-.6-3.4-2.5-4.4-4.5-.7-1.5-2-1.3-3.5-1.9-1.4-.6-2.3-1.7-5.2-1.1-2.4.6-2.7 4.5-6 4.3-1.6-.1-1.7-2.5-4-5.5-6.3-7.6-12.2-6.5-16.1.5l30 35.7L60.7 20Zm75.2-14.4V1.8h3.2l-3.2 3.7Z" fill="#491213"/><path d="m88 70.6 4-6.5 4 6.5-4 6.5-4-6.5Z" fill="#23A9E1"/><path d="M65 32.2c.4.6.8 1.3.7 2 0 .6-.9 1.6-.3 1.8l2.2-2.7c-.6-.2-5.3-5.8-5.3-6.5L59 28.5c.2.7 1.3 0 1.9 0 .8 0 1.4.6 2 1.2-1.7 1.4-5.9 5-6.4 5-.2 0-1-.6-1 0 0 .2.8 1 1 1.1.6 1 1.4 1.8 2 2.7.7-.3 0-.7.3-1.2.3-.4 4.8-4.2 6-5.1Zm-5.3-7c.4-.1.6.4 1-.1l-2.4-2.9c-.4-.4-.8-.9-.7 0 .1.6-6 5.7-6.4 5.8-.5.2-.8-.4-1.1 0l2.1 2.7.7.9c.3.3.2-.7.2-.6 0-.5.5-1 1-1.2 1.4-1.3 5.2-4.6 5.6-4.6Zm-8.7-.9c-1.8.5-3.7-.2-4.2-2s.6-3.8 2-4.8c1.5-1 3.6-1 4.4.8.3.8.2 1.7 0 2.5-.3.5-.7 1 0 1.3 1-1 1.7-2.2 2.6-3.3-1-.6-1.5-1.7-2.3-2.6-.9-1-2-2-3.4-2.3-3-.4-5.6 2.6-5.8 5.2 0 1.5.4 2.8 1.2 4 .8 1 1.9 1.6 2.4 2.8.3 0 2.7-1 3.3-1.3l-.2-.3c-.7.2 0 0 0 0Zm39 36.2c-1.3-.8-4-4.6-4.6-5.2l-.3-.4-.2.2c-.2 0 0 .6-.1.9-.8 1.1-5.8 5-6 5.1-.6.4-1.2-.2-1.5.3.7 1 2.8 3.5 3 3.6.5.1.1-.8.2-1 .1-.4 2.6-2.4 3.5-3.2.3-.3.7.4.9.7.3.5.5 1 .3 1.6-.1.4-.7 1-.3 1.2l2.5-3c.3-.3-.6 0-.5 0a1 1 0 0 1-1 0c-.1-.2-1.1-1.2-1-1.3.4-.4 1-1 1.5-1 .8-.3 1.5 1.4 1.6 2v1.8c-.2.4-.6.7 0 1l2-3c.2-.2 0-.3 0-.3-.2 0 .1 0 0 0Zm-10.2-4.1c2.2-2 2.5-5.1.8-7.3-1.9-2.5-5.4-3.1-7.7-1.1a5.3 5.3 0 0 0-.8 7.3c2 2.6 5.1 3 7.7 1 1.2-.8 0 .2 0 0Zm-.5-4.7c-.6 1.5-2.2 3-3.7 3.7-1.7.7-3-.8-2.3-2.6.7-1.5 2.1-3.1 3.6-3.7 2-.7 3.1.9 2.4 2.6-.4.9.1-.2 0 0Zm-5.8-9.9c.5.1.9.5 1.3 0l-2.2-2.6c-.6.3 0 .5-.2 1-.2.4-2.6.8-3.2 1 .2-.7.9-2.7 1.2-2.9.5-.4.9.4 1.3 0L69 34.8c-.3-.4-.6-1-1-.7V36c-.2.2-1 3.6-2 4.5-.5.4-2.2 2-2.6 2.1-.5.2-.8-.6-1.2 0l2.4 3c.1.1.6.9.8.9.5 0 .1-.9.1-1.1.2-.4 2.5-2.7 3.5-2.9 1.2-.2 3-.7 4.5-.6.3.1-.4 0 0 0Z" fill="#fff"/><path d="M67.2 22.8c-4-.2-2.4-4 .4-4.8 2.6-.8 8 1.7 9.7 3.4-2.7.9-6.3.7-9.3.9-.2-3.2-1-2-.8.5Zm9.4 12.4c-8.5 0-2.7-13.2.1-12.4 3.4 1 3 12.5 0 12.4Zm6.1-4.2c-.8 2.5-2.4 3-2.2-.1.2-3.5 2.5-2.7 4.9-4 2-1.1 3-5.2 6.5-2.8 1.6 1 3.4.2 3.9 1.8 0-.1-4.5 10.2-2 10.2-5 0-2.8-5.8-.9-9.8-1.8.9-4.8 6.7-2.4 7.6-1.3 1.6-5.1 3.8-7.1 2.2-1.5-1-.7-3.1-.7-5.1Zm4 9.5c-3.4 1-8-1.2-2.4-2.3 3.4-.7 7.1.7 2.4 2.3.1 0 0 0 0 0Zm4.4-.1c-.7-1.7.6-3.6 2.7-2.2 1.8 1.2-.9 3.1-2.7 2.2Zm-3 4.6c-2.3-.7-10.4-.6-5.1-2.8 1.7-.6 10 .2 5.1 2.8Zm10.4 3.3c-1.3-1.2-2.8-1.3-4.1 0C92.6 45 86.2 46 83 45.6c1.6 4 14.7 4.9 15.4 2.7Zm-1.8 2.5c-3.2-.1-6.7-.6-9.6 0 2 .6 6.4 1.9 2.2 3 1.5 2.2 4 2 5.6 0-.7-.2-1-.6-1.6-1 1.6-.3 3.2-1.2 3.4-2Zm3.5-3.9c-5.2-3-4-5.4.4-7.6 2.3-1 7.3-5.2 9.3-3.9-3.2 4-6.5 7.7-9.7 11.5Z" fill="#DC6243"/><path d="M96.5 39.6C92 35 103 35.4 104.9 34c1.3.3 10.7-8.3 13-7.7-1.7 1.9-5.2 8-7.8 8-2 0-4-.3-5.4 1.1-2.2 2.1-5.9 3.1-8.2 4.3Z" fill="#F49774"/><path d="M98 34c-2.5 1.3-4.8-3.8-.5-3.3 2.7.3 5.6-.2 8.2.2A8.6 8.6 0 0 1 98 34Z" fill="#F4B1A4"/><path d="M110.4 52.3c.2.6.3 1.3.2 2 0 .9-1 2.8-2.1 2.2-1.2-.5-2.2-1.6-3.2-2.5.8-1 1.5-1.7 2.9-1.3.4 0 .7 0 .3-.3-.4-.2-3.1-2-3.3-1.8-.3.3.5.9.2 1.5l-.9 1.2c-.7-.6-1.9-1.3-1-2.3.4-.7 1.2-1.2 2-1.3.6-.1 1.8.4 2-.2l-3.3-1.6c.2.8-3.3 4.5-4 5.5-.2 0-.8.6-.8.8 0 .4.6 0 .7 0 .5-.1 6.8 5.1 7 5.5 0 .3-.2.6 0 .7l.3.2c.4-.5 4.4-6 5.3-6.1l-2.4-3.7c-.5.3 0 1 .1 1.5Zm-6.1 6.7c-2-1.4-5.6 1.2-6 1.4-1 .5-1.8-.5-1.3-1.5a3 3 0 0 1 2.2-1.3c.3 0 1.3.2 1.5 0 .1-.2.2-.2 0-.3l-2.5-1.6c-.2 1-1.4 1.6-2.1 2.3-.8 1-1.5 2-1.5 3.2 0 1.1.7 2.1 1.7 2.7 1 .6 2.2.1 3.2-.5.6-.4 1.3-.9 2-1.2 1-.5 2.2 0 2 1.3-.4 1.1-1.5 2.1-2.5 2.3a3 3 0 0 1-1.9 0c-.4-.2-1-.8-1.1-.2l3.4 2.5c.1-.8.5-1.1 1.1-1.6l2-2c1.2-1.8 1.6-4.2-.2-5.6Z" fill="#fff"/><path d="M104.3 59c1 .5-.6-.6 0 0Zm36.4-39.5c-.7.7-8.3-2.3-9-2.8-.2 0-.2-1.3-.6-.8l-1.2 1.5-1.3 1.5c-.3.3-.5.5 0 .7.8-.4 5.3 7.3 5 8.5-.7.4-6.9-5.1-7-5.4-.2-.1.2-1-.3-.9-.2 0-.7.9-.9 1.1l-.9 1c.3.6.5 0 1 0l2.2 1.8h-2.9c-.9.2-.4-.6-1-.8l-2.3 2.8-1.2 1.6c-.1 0 0 0 0 0 .3.4 0 .3.6 0a42 42 0 0 1 6.7 5.2c.4.4-.2 1 .4 1.2l1.8-2.1v-.2c-.4-.4-.5.2-1 .2-.5-.1-4.4-3.4-5.9-4.6l8.2-.3c.3 0 1 .9 1 1.2 0 .4-.4.6.2.8l1.4-1.7.2-.3.2-.3.2-.2c.4-.5 1.8-2 1.6-2.1-.5-.4-.7.5-1.3-.1-.3-.2-1.2-1.8-1.4-2.2-.3-.4.6-.9 1-1.1.8-.5 3.2-1.2 3.5.3 0 .3-.3.5 0 .7l.2.2 3.3-4-.5-.4Zm-7.4 2.2c.1 0 .2-.1 0 0a7 7 0 0 0-1 .8l-1.5-2.7 3.4 1.5-.9.4Zm-9.6 11.2c-2.4-2-5.5-1.4-7.5.8a5.4 5.4 0 0 0 .6 7.5 5.4 5.4 0 0 0 7.5-.8c2-2.3 1.8-5.7-.6-7.5Zm-.3 6.5s0 .1 0 0c-1.3 1.3-3.3.1-4.4-.7-1.1-.8-3.1-2.6-2-4 1.2-1.3 3.2-.3 4.3.4 1.1.8 3.3 2.6 2.2 4.2.1 0 .1 0 0 .1Z" fill="#fff"/><path d="M123.7 32.9c1.2 1-.3-.2 0 0Zm-.3 6.6h.1Zm-6.2 2.5s.3.2 0 0c-2.9-2.3-6.3-1.7-8.4 1l-3 3.6c.4.5.8-.1 1.3.2.4.3 6.1 5 6.2 5.4.2.5-.3.5.1.9.2 0 4.5-5.2 4.9-6.2.9-1.8.3-3.7-1.1-5Zm-1.3 6.7-.7.7c-.3.3-6.3-4.7-6.1-4.9.8-.9 2.5-1.6 3.5-1.3 2.2.5 5.2 3.2 3.3 5.5Z" fill="#fff"/></symbol></svg>